<svg id="Layer_1" xmlns="http://www.w3.org/2000/svg" viewBox="0 0 970 154"><style>.st0{fill:#9f1f34}.st1{fill:#2a2e2f}</style><path class="st0" d="M67 41.4c-6.8-7.2-15.4-10.9-25.9-10.9-10.6 0-19.3 3.5-25.9 10.8C8.4 48.7 5 58 5 69.3 5 80.8 8.4 90 15.1 97.2 21.9 104.5 30.4 108 41 108s19.1-3.7 25.9-10.9c6.8-7.2 10.2-16.6 10.2-27.9 0-11.2-3.4-20.5-10.1-27.8zM56.7 92.7c-4 5.8-9.2 8.6-15.7 8.6-6.4 0-11.6-3-15.6-8.8-4-5.8-5.9-13.6-5.9-23.4s2-17.6 5.8-23.4c4-5.8 9.1-8.8 15.6-8.8s11.6 3 15.6 8.8 5.9 13.6 5.9 23.4c.3 10-1.7 17.8-5.7 23.6zm87.8-52c-5.5-6.8-12.7-10.2-21.4-10.2-3.5 0-7.2.7-10.9 2.3-3.7 1.6-7.6 3.8-11.9 7.1v-8.5h-5.8l-18 5.5v4.8h10.8v90l-2.4 2.4-8.4.8v5.5h36.4v-5.5l-9.9-.8-2.7-2.4.1-25.9c2.8.4 5.5.8 7.9 1 2.4.3 4.5.3 6.5.3 11.5 0 20.8-3.7 27.8-11s10.5-17.1 10.5-29.3c-.2-10.6-3-19.3-8.6-26.1zm-12.4 50.9c-4.8 5.7-10.9 8.6-18.7 8.6-2 0-4-.1-6.2-.6-2.3-.4-4.5-1-7.1-1.8V45.7c3.1-1.8 6.1-3.1 8.6-4 2.7-.8 5.2-1.3 7.6-1.3 6.8 0 12.3 2.5 16.4 7.8 4.1 5.1 6.2 12 6.2 20.8.4 9.3-2 16.9-6.8 22.6zm66.8 7.8c-7.9 0-14.3-2.8-19-8.5-4.7-5.7-7.1-13.5-7.1-23.1v-1.7h50.3c.1-.6.1-1.3.1-1.8v-2.8c0-9.5-2.5-16.9-7.5-22.4-5.1-5.5-11.9-8.2-20.4-8.2-10.5 0-19.1 3.7-25.8 11-6.7 7.4-10.1 16.9-10.1 28.5 0 11.3 3.3 20.5 9.6 27.5 6.4 7.1 14.7 10.6 24.9 10.6 5 0 9.9-.8 14.9-2.4 5-1.6 9.8-3.8 14.3-6.9v-8.5c-4.7 3.1-8.9 5.4-12.9 6.8-3.8 1.2-7.6 1.9-11.3 1.9zm-19-55.6c3.8-4.1 8.2-6.1 13.3-6.1 5.2 0 9.2 1.7 12 5 2.7 3.3 4.1 8.1 4.1 14.3v2.4h-35.8c.5-6.2 2.6-11.5 6.4-15.6zm84.2 62.9V101l-7.4-.7-2.7-2.5V46c3.4-1.7 6.4-3 9.3-3.8 2.8-.8 5.5-1.3 8.1-1.3 5.7 0 9.6 1.3 12 3.7 2.4 2.4 3.5 6.5 3.5 12.3V98l-2.7 2.5-7.4.7v5.7h34v-5.7l-8.4-.7-2.7-2.5V54.2c0-7.6-1.8-13.5-5.4-17.6-3.5-4-8.8-6.1-15.6-6.1-2.8 0-6.2.7-10.1 2.1-3.8 1.4-8.8 3.8-15 7.2v-8.5h-5.9l-18 5.5v4.8h11v56.1l-2.7 2.5-8.4.7v5.7l34.5.1z"/><path class="st1" d="M352.8 98.7c-8.1 0-14.6-2.7-19.3-8.1-4.7-5.4-7.1-12.9-7.1-22.2 0-9.5 2.1-17.1 6.2-22.9 4.1-5.7 9.6-8.6 16.6-8.6 1.3 0 2.5.1 3.8.6 1.3.4 2.5 1 3.7 1.6v12.7c1.1.7 2.3 1.3 3.5 1.7 1.1.4 2.3.6 3.5.6 2.7 0 4.7-.7 6.2-2.3 1.6-1.6 2.4-3.5 2.4-5.9 0-4.7-2.1-8.4-6.2-11-4.1-2.7-9.8-4.1-17-4.1-10.9 0-19.7 3.5-26.5 10.8-6.8 7.2-10.2 16.6-10.2 28 0 11.6 3.3 20.8 9.6 27.9s14.9 10.6 25.4 10.6c4.1 0 8.2-.6 12.5-1.8 4.2-1.3 8.5-3.1 12.7-5.7v-8.1c-3.3 2.3-6.5 3.8-9.8 5-3.4.7-6.6 1.2-10 1.2M438 41.4c-6.8-7.2-15.4-10.9-25.9-10.9-10.6 0-19.3 3.5-25.9 10.8-6.7 7.2-10.1 16.6-10.1 27.9 0 11.5 3.4 20.7 10.1 27.9 6.8 7.2 15.3 10.8 25.9 10.8 10.5 0 19.1-3.7 25.9-10.9 6.8-7.2 10.2-16.6 10.2-27.9-.1-11.1-3.4-20.4-10.2-27.7zm-10.3 51.3c-4 5.8-9.2 8.6-15.7 8.6-6.4 0-11.6-3-15.6-8.8-4-5.8-5.9-13.6-5.9-23.4s2-17.6 5.8-23.4c4-5.8 9.1-8.8 15.6-8.8s11.6 3 15.6 8.8 5.9 13.6 5.9 23.4c.2 10-1.7 17.8-5.7 23.6zM496 30.5c-1.1 0-1.8 0-2.4.1-.6 0-1 .1-1.4.3-3 2.4-5.9 4.8-8.6 7.4-2.7 2.5-5.4 5.1-7.9 7.6V31.4h-5.9l-18 5.5v4.8h10.9v56.1l-2.7 2.5-8.2.7v5.7H489V101l-10.9-.7-2.7-2.5V53.6c3.3-3.8 6.2-6.8 9.1-8.6 2.7-1.8 5.4-2.8 7.8-2.8 1.6 0 3.1.3 4.4 1 1.3.6 2.5 1.6 3.5 2.8h5V32.6c-1.6-.7-3.1-1.3-4.7-1.6-1.4-.2-3-.5-4.5-.5m80.6 10.2c-5.5-6.8-12.7-10.2-21.4-10.2-3.5 0-7.2.7-10.9 2.3-3.7 1.6-7.6 3.8-11.9 7.1v-8.5h-5.8l-18 5.5v4.8h10.8v90l-2.4 2.4-8.4.8v5.5H545v-5.5l-9.9-.8-2.7-2.4.1-25.9c2.8.4 5.5.8 7.9 1 2.4.3 4.5.3 6.5.3 11.5 0 20.8-3.7 27.8-11 6.9-7.4 10.5-17.1 10.5-29.3-.3-10.6-3-19.3-8.6-26.1zm-12.3 50.9c-4.8 5.7-10.9 8.6-18.7 8.6-2 0-4-.1-6.2-.6-2.3-.4-4.5-1-7.1-1.8V45.7c3.1-1.8 6.1-3.1 8.6-4 2.7-.8 5.2-1.3 7.6-1.3 6.8 0 12.3 2.5 16.4 7.8 4.1 5.1 6.2 12 6.2 20.8.2 9.3-2.2 16.9-6.8 22.6zm89.3-50.2c-6.8-7.2-15.4-10.9-25.9-10.9-10.6 0-19.3 3.5-25.9 10.8-6.7 7.2-10.1 16.6-10.1 27.9 0 11.5 3.4 20.7 10.1 27.9 6.8 7.2 15.3 10.8 25.9 10.8s19.1-3.7 25.9-10.9c6.8-7.2 10.2-16.6 10.2-27.9-.1-11.1-3.5-20.4-10.2-27.7zm-10.3 51.3c-4 5.8-9.2 8.6-15.7 8.6-6.4 0-11.6-3-15.6-8.8-4-5.8-5.9-13.6-5.9-23.4s2-17.6 5.8-23.4c4-5.8 9.1-8.8 15.6-8.8s11.6 3 15.6 8.8 5.9 13.6 5.9 23.4c.2 10-1.7 17.8-5.7 23.6zm68.3-62.2c-1 0-1.8 0-2.4.1-.6 0-1 .1-1.4.3-3 2.4-5.9 4.8-8.6 7.4-2.7 2.5-5.4 5.1-7.9 7.6V31.4h-5.9l-18 5.5v4.8h10.9v56.1l-2.7 2.5-8.2.7v5.7h37.4V101l-10.8-.7-2.7-2.5V53.6c3.3-3.8 6.2-6.8 9.1-8.6 2.7-1.8 5.4-2.8 7.8-2.8 1.6 0 3.1.3 4.4 1 1.3.6 2.5 1.6 3.5 2.8h5V32.6c-1.6-.7-3.1-1.3-4.7-1.6-1.9-.2-3.3-.5-4.8-.5m72.9 69.9l-2.7-2.5v-45c0-7.8-1.8-13.5-5.5-17s-9.6-5.2-17.7-5.2c-9.2 0-16.7 1.7-22.7 5-5.8 3.4-8.8 7.5-8.8 12.6 0 1.8.3 3.1 1 3.7.7.7 2 1 3.8 1h10.6V40c2.1-.8 4.1-1.4 5.9-1.8 2-.4 3.8-.6 5.8-.6 5.2 0 8.9 1.3 11 3.8s3.1 7.1 3.1 13.6v5c-19.4 4.7-31.7 8.9-37.1 12.6-5.4 3.8-8.1 8.9-8.1 15.6 0 5.9 1.8 10.8 5.4 14.4 3.5 3.7 8.4 5.5 14.4 5.5 3.7 0 7.5-.8 11.8-2.4 4.2-1.6 8.8-4.1 13.7-7.6l2 9.1h21.8v-5.7l-7.7-1.1zM758 97.7c-3.1 1.1-5.9 1.7-8.4 1.7-3.8 0-6.8-1.1-9.1-3.4s-3.4-5.4-3.4-9.2c0-4.8 2-8.8 6.1-11.8s12.6-6.2 25.5-9.8v27.3c-3.9 2.3-7.5 4-10.7 5.2zm56.4-80.1h-5.8L801.9 32l-10.2 4.5v4.8h9.8v50c0 5.9 1.1 10.1 3.5 12.3 2.4 2.3 6.5 3.4 12.6 3.4 3.1 0 6.5-.3 9.9-.8 3.4-.6 6.9-1.4 10.5-2.5v-5.8c-2 .4-3.8.8-5.5 1-1.8.1-3.5.3-5.2.3-4.8 0-8.2-1.1-10.1-3.4s-2.8-6.8-2.8-13.5V41.4h23.7v-7.2h-23.7V17.6zm66.7 81.8c-7.9 0-14.3-2.8-19-8.5S855 77.4 855 67.8v-1.7h50.3c.1-.6.1-1.3.1-1.8v-2.8c0-9.5-2.5-16.9-7.5-22.4-5.1-5.5-11.9-8.2-20.4-8.2-10.5 0-19.1 3.7-25.8 11s-10.1 16.9-10.1 28.5c0 11.3 3.3 20.5 9.6 27.5 6.4 7.1 14.7 10.6 24.9 10.6 5 0 9.9-.8 14.9-2.4 5-1.6 9.8-3.8 14.3-6.9v-8.5c-4.7 3.1-8.9 5.4-12.9 6.8-3.6 1.2-7.4 1.9-11.3 1.9zm-18.9-55.6c3.8-4.1 8.2-6.1 13.3-6.1 5.2 0 9.2 1.7 12 5 2.7 3.3 4.1 8.1 4.1 14.3v2.4h-35.8c.5-6.2 2.7-11.5 6.4-15.6zM962 77.3c-1-2.3-2.4-4.2-4.4-5.7-2.7-2.1-6.8-4.5-12.7-7.2-1.7-.7-2.8-1.3-3.7-1.7-5.1-2.4-8.6-4.7-10.5-6.8-1.8-2-2.7-4.5-2.7-7.4 0-3.5 1.1-6.2 3.4-8.2 2.3-2 5.4-3 9.5-3 1.8 0 3.7.3 5.7.8 1.8.6 3.8 1.4 5.9 2.5l1.3 11h7.6V33.9c-2.7-1.1-5.4-2-8.5-2.5-3-.6-6.2-.8-9.8-.8-8.8 0-15.4 1.8-20.3 5.7-4.8 3.8-7.2 9.2-7.2 16 0 4.5 1.4 8.4 4.2 11.5 2.8 3.1 8.1 6.4 15.9 9.8 6.8 3.1 11.2 5.7 13 7.8 1.8 2 2.7 4.7 2.7 7.8 0 3.7-1.3 6.8-4 9.1s-6.2 3.4-10.6 3.4c-2.3 0-4.4-.3-6.7-.8-2.1-.6-4.4-1.6-6.5-2.8l-1.8-13.2h-7.5V105c2.8 1.1 6.1 2 9.5 2.4 3.4.6 6.9.8 10.8.8 9.1 0 16.1-2.1 21.4-6.2 5.1-4.1 7.6-9.8 7.6-17.1 0-2.8-.6-5.4-1.6-7.6"/><circle class="st0" cx="954.5" cy="139.9" r="9.5"/><circle class="st0" cx="913.3" cy="139.9" r="9.5"/><circle class="st0" cx="872.1" cy="139.9" r="9.5"/><circle class="st0" cx="830.8" cy="139.9" r="9.5"/><circle class="st0" cx="789.6" cy="139.9" r="9.5"/></svg>